  0
SECTION
  2
HEADER
  9
$EXTMIN
 10
-9.500000
 20
-2.400000
  9
$EXTMAX
 10
4.800000
 20
16.000000
  9
$LIMMIN
 10
-9.500000
 20
-2.400000
  9
$LIMMAX
 10
4.800000
 20
16.000000
  9
$LUNITS
 70
2
  9
$LUPREC
 70
3
  9
$FILLMODE
 70
0
  0
ENDSEC
  0
SECTION
  2
TABLES
  0
TABLE
  2
LTYPE
 70
1
  0
LTYPE
  2
CONTINUOUS
 70
64
  3
Solid Line
 72
65
 73
0
 40
0.000000
  0
ENDTAB
  0
TABLE
  2
LAYER
 70
12
  0
LAYER
  2
WIRES
 70
64
 62
1
  6
CONTINUOUS
  0
LAYER
  2
BUS
 70
64
 62
1
  6
CONTINUOUS
  0
LAYER
  2
GATE
 70
64
 62
2
  6
CONTINUOUS
  0
LAYER
  2
PINNUM
 70
64
 62
1
  6
CONTINUOUS
  0
LAYER
  2
PINNAM
 70
64
 62
6
  6
CONTINUOUS
  0
LAYER
  2
PINCON
 70
64
 62
4
  6
CONTINUOUS
  0
LAYER
  2
REFDES
 70
64
 62
2
  6
CONTINUOUS
  0
LAYER
  2
SDOT
 70
64
 62
1
  6
CONTINUOUS
  0
LAYER
  2
DEVICE
 70
64
 62
5
  6
CONTINUOUS
  0
LAYER
  2
OUTLIN
 70
64
 62
5
  6
CONTINUOUS
  0
LAYER
  2
NETNAM
 70
64
 62
4
  6
CONTINUOUS
  0
LAYER
  2
CMPNAM
 70
64
 62
5
  6
CONTINUOUS
  0
ENDTAB
  0
ENDSEC
  0
SECTION
  2
BLOCKS
  0
ENDSEC
  0
SECTION
  2
ENTITIES
  0
TEXT
  8
GATE
 10
-0.950000
 20
12.730000
 40
0.127500
  1
&
 50
0.000000
 41
0.880000
 72
4
 11
-0.900000
 21
12.800000
  0
POLYLINE
  8
GATE
 66
1
 40
0.000000
 41
0.000000
  0
VERTEX
  8
GATE
 10
-0.500000
 20
12.800000
  0
VERTEX
  8
GATE
 10
-0.200000
 20
12.800000
  0
SEQEND
  8
GATE
  0
POLYLINE
  8
GATE
 66
1
 40
0.000000
 41
0.000000
  0
VERTEX
  8
GATE
 10
-1.200000
 20
12.800000
  0
VERTEX
  8
GATE
 10
-1.600000
 20
12.800000
  0
SEQEND
  8
GATE
  0
POLYLINE
  8
GATE
 66
1
 40
0.000000
 41
0.000000
  0
VERTEX
  8
GATE
 10
-1.600000
 20
12.600000
  0
VERTEX
  8
GATE
 10
-1.200000
 20
12.600000
  0
SEQEND
  8
GATE
  0
POLYLINE
  8
GATE
 66
1
 40
0.000000
 41
0.000000
  0
VERTEX
  8
GATE
 10
-1.600000
 20
12.400000
  0
VERTEX
  8
GATE
 10
-1.200000
 20
12.400000
  0
SEQEND
  8
GATE
  0
POLYLINE
  8
GATE
 66
1
 40
0.000000
 41
0.000000
  0
VERTEX
  8
GATE
 10
-1.600000
 20
12.200000
  0
VERTEX
  8
GATE
 10
-1.200000
 20
12.200000
  0
SEQEND
  8
GATE
  0
CIRCLE
  8
GATE
 10
-0.550000
 20
12.800000
 40
0.050000
  0
POLYLINE
  8
GATE
 66
1
 70
1
 40
0.020000
 41
0.020000
  0
VERTEX
  8
GATE
 10
-1.200000
 20
12.000000
  0
VERTEX
  8
GATE
 10
-1.200000
 20
13.000000
  0
VERTEX
  8
GATE
 10
-0.600000
 20
13.000000
  0
VERTEX
  8
GATE
 10
-0.600000
 20
12.000000
  0
VERTEX
  8
GATE
 10
-1.200000
 20
12.000000
  0
SEQEND
  8
GATE
  0
TEXT
  8
GATE
 10
-0.950000
 20
13.930000
 40
0.127500
  1
&
 50
0.000000
 41
0.880000
 72
4
 11
-0.900000
 21
14.000000
  0
POLYLINE
  8
GATE
 66
1
 40
0.000000
 41
0.000000
  0
VERTEX
  8
GATE
 10
-0.500000
 20
14.000000
  0
VERTEX
  8
GATE
 10
-0.200000
 20
14.000000
  0
SEQEND
  8
GATE
  0
POLYLINE
  8
GATE
 66
1
 40
0.000000
 41
0.000000
  0
VERTEX
  8
GATE
 10
-1.200000
 20
14.000000
  0
VERTEX
  8
GATE
 10
-1.600000
 20
14.000000
  0
SEQEND
  8
GATE
  0
POLYLINE
  8
GATE
 66
1
 40
0.000000
 41
0.000000
  0
VERTEX
  8
GATE
 10
-1.600000
 20
13.800000
  0
VERTEX
  8
GATE
 10
-1.200000
 20
13.800000
  0
SEQEND
  8
GATE
  0
POLYLINE
  8
GATE
 66
1
 40
0.000000
 41
0.000000
  0
VERTEX
  8
GATE
 10
-1.600000
 20
13.600000
  0
VERTEX
  8
GATE
 10
-1.200000
 20
13.600000
  0
SEQEND
  8
GATE
  0
POLYLINE
  8
GATE
 66
1
 40
0.000000
 41
0.000000
  0
VERTEX
  8
GATE
 10
-1.600000
 20
13.400000
  0
VERTEX
  8
GATE
 10
-1.200000
 20
13.400000
  0
SEQEND
  8
GATE
  0
CIRCLE
  8
GATE
 10
-0.550000
 20
14.000000
 40
0.050000
  0
POLYLINE
  8
GATE
 66
1
 70
1
 40
0.020000
 41
0.020000
  0
VERTEX
  8
GATE
 10
-1.200000
 20
13.200000
  0
VERTEX
  8
GATE
 10
-1.200000
 20
14.200000
  0
VERTEX
  8
GATE
 10
-0.600000
 20
14.200000
  0
VERTEX
  8
GATE
 10
-0.600000
 20
13.200000
  0
VERTEX
  8
GATE
 10
-1.200000
 20
13.200000
  0
SEQEND
  8
GATE
  0
TEXT
  8
GATE
 10
0.650000
 20
10.980000
 40
0.127500
  1
1
 50
0.000000
 41
0.880000
 72
4
 11
0.700000
 21
11.050000
  0
CIRCLE
  8
GATE
 10
1.050000
 20
11.000000
 40
0.050000
  0
POLYLINE
  8
GATE
 66
1
 40
0.000000
 41
0.000000
  0
VERTEX
  8
GATE
 10
1.100000
 20
11.000000
  0
VERTEX
  8
GATE
 10
1.400000
 20
11.000000
  0
SEQEND
  8
GATE
  0
POLYLINE
  8
GATE
 66
1
 40
0.000000
 41
0.000000
  0
VERTEX
  8
GATE
 10
0.400000
 20
11.000000
  0
VERTEX
  8
GATE
 10
0.000000
 20
11.000000
  0
SEQEND
  8
GATE
  0
POLYLINE
  8
GATE
 66
1
 40
0.000000
 41
0.000000
  0
VERTEX
  8
GATE
 10
0.000000
 20
10.800000
  0
VERTEX
  8
GATE
 10
0.400000
 20
10.800000
  0
SEQEND
  8
GATE
  0
POLYLINE
  8
GATE
 66
1
 70
1
 40
0.020000
 41
0.020000
  0
VERTEX
  8
GATE
 10
0.400000
 20
10.600000
  0
VERTEX
  8
GATE
 10
0.400000
 20
11.200000
  0
VERTEX
  8
GATE
 10
1.000000
 20
11.200000
  0
VERTEX
  8
GATE
 10
1.000000
 20
10.600000
  0
VERTEX
  8
GATE
 10
0.400000
 20
10.600000
  0
SEQEND
  8
GATE
  0
POLYLINE
  8
GATE
 66
1
 40
0.000000
 41
0.000000
  0
VERTEX
  8
GATE
 10
3.300000
 20
0.600000
  0
VERTEX
  8
GATE
 10
3.600000
 20
0.600000
  0
SEQEND
  8
GATE
  0
CIRCLE
  8
GATE
 10
3.250000
 20
0.600000
 40
0.050000
  0
TEXT
  8
GATE
 10
2.850000
 20
0.530000
 40
0.127500
  1
1
 50
0.000000
 41
0.880000
 72
4
 11
2.900000
 21
0.600000
  0
POLYLINE
  8
GATE
 66
1
 70
1
 40
0.020000
 41
0.020000
  0
VERTEX
  8
GATE
 10
2.600000
 20
-0.200000
  0
VERTEX
  8
GATE
 10
2.600000
 20
0.800000
  0
VERTEX
  8
GATE
 10
3.200000
 20
0.800000
  0
VERTEX
  8
GATE
 10
3.200000
 20
-0.200000
  0
VERTEX
  8
GATE
 10
2.600000
 20
-0.200000
  0
SEQEND
  8
GATE
  0
POLYLINE
  8
GATE
 66
1
 40
0.000000
 41
0.000000
  0
VERTEX
  8
GATE
 10
2.200000
 20
0.600000
  0
VERTEX
  8
GATE
 10
2.600000
 20
0.600000
  0
SEQEND
  8
GATE
  0
POLYLINE
  8
GATE
 66
1
 40
0.000000
 41
0.000000
  0
VERTEX
  8
GATE
 10
2.200000
 20
0.400000
  0
VERTEX
  8
GATE
 10
2.600000
 20
0.400000
  0
SEQEND
  8
GATE
  0
POLYLINE
  8
GATE
 66
1
 40
0.000000
 41
0.000000
  0
VERTEX
  8
GATE
 10
2.200000
 20
0.200000
  0
VERTEX
  8
GATE
 10
2.600000
 20
0.200000
  0
SEQEND
  8
GATE
  0
POLYLINE
  8
GATE
 66
1
 40
0.000000
 41
0.000000
  0
VERTEX
  8
GATE
 10
2.200000
 20
0.000000
  0
VERTEX
  8
GATE
 10
2.600000
 20
0.000000
  0
SEQEND
  8
GATE
  0
POLYLINE
  8
GATE
 66
1
 70
1
 40
0.020000
 41
0.020000
  0
VERTEX
  8
GATE
 10
2.400000
 20
10.600000
  0
VERTEX
  8
GATE
 10
2.400000
 20
11.200000
  0
VERTEX
  8
GATE
 10
3.000000
 20
11.200000
  0
VERTEX
  8
GATE
 10
3.000000
 20
10.600000
  0
VERTEX
  8
GATE
 10
2.400000
 20
10.600000
  0
SEQEND
  8
GATE
  0
TEXT
  8
GATE
 10
2.650000
 20
10.980000
 40
0.127500
  1
1
 50
0.000000
 41
0.880000
 72
4
 11
2.700000
 21
11.050000
  0
POLYLINE
  8
GATE
 66
1
 40
0.000000
 41
0.000000
  0
VERTEX
  8
GATE
 10
2.400000
 20
11.000000
  0
VERTEX
  8
GATE
 10
2.000000
 20
11.000000
  0
SEQEND
  8
GATE
  0
POLYLINE
  8
GATE
 66
1
 40
0.000000
 41
0.000000
  0
VERTEX
  8
GATE
 10
2.000000
 20
10.800000
  0
VERTEX
  8
GATE
 10
2.400000
 20
10.800000
  0
SEQEND
  8
GATE
  0
POLYLINE
  8
GATE
 66
1
 40
0.000000
 41
0.000000
  0
VERTEX
  8
GATE
 10
3.000000
 20
11.000000
  0
VERTEX
  8
GATE
 10
3.400000
 20
11.000000
  0
SEQEND
  8
GATE
  0
POLYLINE
  8
GATE
 66
1
 70
1
 40
0.020000
 41
0.020000
  0
VERTEX
  8
GATE
 10
-1.000000
 20
-1.600000
  0
VERTEX
  8
GATE
 10
-1.000000
 20
-1.000000
  0
VERTEX
  8
GATE
 10
-0.400000
 20
-1.000000
  0
VERTEX
  8
GATE
 10
-0.400000
 20
-1.600000
  0
VERTEX
  8
GATE
 10
-1.000000
 20
-1.600000
  0
SEQEND
  8
GATE
  0
TEXT
  8
GATE
 10
-0.750000
 20
-1.220000
 40
0.127500
  1
&
 50
0.000000
 41
0.880000
 72
4
 11
-0.700000
 21
-1.150000
  0
POLYLINE
  8
GATE
 66
1
 40
0.000000
 41
0.000000
  0
VERTEX
  8
GATE
 10
-1.000000
 20
-1.200000
  0
VERTEX
  8
GATE
 10
-1.400000
 20
-1.200000
  0
SEQEND
  8
GATE
  0
POLYLINE
  8
GATE
 66
1
 40
0.000000
 41
0.000000
  0
VERTEX
  8
GATE
 10
-1.400000
 20
-1.400000
  0
VERTEX
  8
GATE
 10
-1.000000
 20
-1.400000
  0
SEQEND
  8
GATE
  0
POLYLINE
  8
GATE
 66
1
 40
0.000000
 41
0.000000
  0
VERTEX
  8
GATE
 10
-0.400000
 20
-1.200000
  0
VERTEX
  8
GATE
 10
0.000000
 20
-1.200000
  0
SEQEND
  8
GATE
  0
POLYLINE
  8
GATE
 66
1
 70
1
 40
0.020000
 41
0.020000
  0
VERTEX
  8
GATE
 10
-1.000000
 20
-0.800000
  0
VERTEX
  8
GATE
 10
-1.000000
 20
-0.200000
  0
VERTEX
  8
GATE
 10
-0.400000
 20
-0.200000
  0
VERTEX
  8
GATE
 10
-0.400000
 20
-0.800000
  0
VERTEX
  8
GATE
 10
-1.000000
 20
-0.800000
  0
SEQEND
  8
GATE
  0
TEXT
  8
GATE
 10
-0.750000
 20
-0.420000
 40
0.127500
  1
&
 50
0.000000
 41
0.880000
 72
4
 11
-0.700000
 21
-0.350000
  0
POLYLINE
  8
GATE
 66
1
 40
0.000000
 41
0.000000
  0
VERTEX
  8
GATE
 10
-1.000000
 20
-0.400000
  0
VERTEX
  8
GATE
 10
-1.400000
 20
-0.400000
  0
SEQEND
  8
GATE
  0
POLYLINE
  8
GATE
 66
1
 40
0.000000
 41
0.000000
  0
VERTEX
  8
GATE
 10
-1.400000
 20
-0.600000
  0
VERTEX
  8
GATE
 10
-1.000000
 20
-0.600000
  0
SEQEND
  8
GATE
  0
POLYLINE
  8
GATE
 66
1
 40
0.000000
 41
0.000000
  0
VERTEX
  8
GATE
 10
-0.400000
 20
-0.400000
  0
VERTEX
  8
GATE
 10
0.000000
 20
-0.400000
  0
SEQEND
  8
GATE
  0
POLYLINE
  8
GATE
 66
1
 70
1
 40
0.020000
 41
0.020000
  0
VERTEX
  8
GATE
 10
-1.000000
 20
0.000000
  0
VERTEX
  8
GATE
 10
-1.000000
 20
0.600000
  0
VERTEX
  8
GATE
 10
-0.400000
 20
0.600000
  0
VERTEX
  8
GATE
 10
-0.400000
 20
0.000000
  0
VERTEX
  8
GATE
 10
-1.000000
 20
0.000000
  0
SEQEND
  8
GATE
  0
TEXT
  8
GATE
 10
-0.750000
 20
0.380000
 40
0.127500
  1
&
 50
0.000000
 41
0.880000
 72
4
 11
-0.700000
 21
0.450000
  0
POLYLINE
  8
GATE
 66
1
 40
0.000000
 41
0.000000
  0
VERTEX
  8
GATE
 10
-1.000000
 20
0.400000
  0
VERTEX
  8
GATE
 10
-1.400000
 20
0.400000
  0
SEQEND
  8
GATE
  0
POLYLINE
  8
GATE
 66
1
 40
0.000000
 41
0.000000
  0
VERTEX
  8
GATE
 10
-1.400000
 20
0.200000
  0
VERTEX
  8
GATE
 10
-1.000000
 20
0.200000
  0
SEQEND
  8
GATE
  0
POLYLINE
  8
GATE
 66
1
 40
0.000000
 41
0.000000
  0
VERTEX
  8
GATE
 10
-0.400000
 20
0.400000
  0
VERTEX
  8
GATE
 10
0.000000
 20
0.400000
  0
SEQEND
  8
GATE
  0
POLYLINE
  8
GATE
 66
1
 70
1
 40
0.020000
 41
0.020000
  0
VERTEX
  8
GATE
 10
-1.000000
 20
0.800000
  0
VERTEX
  8
GATE
 10
-1.000000
 20
1.400000
  0
VERTEX
  8
GATE
 10
-0.400000
 20
1.400000
  0
VERTEX
  8
GATE
 10
-0.400000
 20
0.800000
  0
VERTEX
  8
GATE
 10
-1.000000
 20
0.800000
  0
SEQEND
  8
GATE
  0
TEXT
  8
GATE
 10
-0.750000
 20
1.180000
 40
0.127500
  1
&
 50
0.000000
 41
0.880000
 72
4
 11
-0.700000
 21
1.250000
  0
POLYLINE
  8
GATE
 66
1
 40
0.000000
 41
0.000000
  0
VERTEX
  8
GATE
 10
-1.000000
 20
1.200000
  0
VERTEX
  8
GATE
 10
-1.400000
 20
1.200000
  0
SEQEND
  8
GATE
  0
POLYLINE
  8
GATE
 66
1
 40
0.000000
 41
0.000000
  0
VERTEX
  8
GATE
 10
-1.400000
 20
1.000000
  0
VERTEX
  8
GATE
 10
-1.000000
 20
1.000000
  0
SEQEND
  8
GATE
  0
POLYLINE
  8
GATE
 66
1
 40
0.000000
 41
0.000000
  0
VERTEX
  8
GATE
 10
-0.400000
 20
1.200000
  0
VERTEX
  8
GATE
 10
0.000000
 20
1.200000
  0
SEQEND
  8
GATE
  0
POLYLINE
  8
GATE
 66
1
 40
0.000000
 41
0.000000
  0
VERTEX
  8
GATE
 10
3.300000
 20
4.000000
  0
VERTEX
  8
GATE
 10
3.600000
 20
4.000000
  0
SEQEND
  8
GATE
  0
CIRCLE
  8
GATE
 10
3.250000
 20
4.000000
 40
0.050000
  0
TEXT
  8
GATE
 10
2.850000
 20
3.930000
 40
0.127500
  1
1
 50
0.000000
 41
0.880000
 72
4
 11
2.900000
 21
4.000000
  0
POLYLINE
  8
GATE
 66
1
 70
1
 40
0.020000
 41
0.020000
  0
VERTEX
  8
GATE
 10
2.600000
 20
3.200000
  0
VERTEX
  8
GATE
 10
2.600000
 20
4.200000
  0
VERTEX
  8
GATE
 10
3.200000
 20
4.200000
  0
VERTEX
  8
GATE
 10
3.200000
 20
3.200000
  0
VERTEX
  8
GATE
 10
2.600000
 20
3.200000
  0
SEQEND
  8
GATE
  0
POLYLINE
  8
GATE
 66
1
 40
0.000000
 41
0.000000
  0
VERTEX
  8
GATE
 10
2.200000
 20
4.000000
  0
VERTEX
  8
GATE
 10
2.600000
 20
4.000000
  0
SEQEND
  8
GATE
  0
POLYLINE
  8
GATE
 66
1
 40
0.000000
 41
0.000000
  0
VERTEX
  8
GATE
 10
2.200000
 20
3.800000
  0
VERTEX
  8
GATE
 10
2.600000
 20
3.800000
  0
SEQEND
  8
GATE
  0
POLYLINE
  8
GATE
 66
1
 40
0.000000
 41
0.000000
  0
VERTEX
  8
GATE
 10
2.200000
 20
3.600000
  0
VERTEX
  8
GATE
 10
2.600000
 20
3.600000
  0
SEQEND
  8
GATE
  0
POLYLINE
  8
GATE
 66
1
 40
0.000000
 41
0.000000
  0
VERTEX
  8
GATE
 10
2.200000
 20
3.400000
  0
VERTEX
  8
GATE
 10
2.600000
 20
3.400000
  0
SEQEND
  8
GATE
  0
POLYLINE
  8
GATE
 66
1
 40
0.000000
 41
0.000000
  0
VERTEX
  8
GATE
 10
3.300000
 20
8.400000
  0
VERTEX
  8
GATE
 10
3.600000
 20
8.400000
  0
SEQEND
  8
GATE
  0
CIRCLE
  8
GATE
 10
3.250000
 20
8.400000
 40
0.050000
  0
TEXT
  8
GATE
 10
2.850000
 20
8.330000
 40
0.127500
  1
1
 50
0.000000
 41
0.880000
 72
4
 11
2.900000
 21
8.400000
  0
POLYLINE
  8
GATE
 66
1
 70
1
 40
0.020000
 41
0.020000
  0
VERTEX
  8
GATE
 10
2.600000
 20
7.600000
  0
VERTEX
  8
GATE
 10
2.600000
 20
8.600000
  0
VERTEX
  8
GATE
 10
3.200000
 20
8.600000
  0
VERTEX
  8
GATE
 10
3.200000
 20
7.600000
  0
VERTEX
  8
GATE
 10
2.600000
 20
7.600000
  0
SEQEND
  8
GATE
  0
POLYLINE
  8
GATE
 66
1
 40
0.000000
 41
0.000000
  0
VERTEX
  8
GATE
 10
2.200000
 20
8.400000
  0
VERTEX
  8
GATE
 10
2.600000
 20
8.400000
  0
SEQEND
  8
GATE
  0
POLYLINE
  8
GATE
 66
1
 40
0.000000
 41
0.000000
  0
VERTEX
  8
GATE
 10
2.200000
 20
8.200000
  0
VERTEX
  8
GATE
 10
2.600000
 20
8.200000
  0
SEQEND
  8
GATE
  0
POLYLINE
  8
GATE
 66
1
 40
0.000000
 41
0.000000
  0
VERTEX
  8
GATE
 10
2.200000
 20
8.000000
  0
VERTEX
  8
GATE
 10
2.600000
 20
8.000000
  0
SEQEND
  8
GATE
  0
POLYLINE
  8
GATE
 66
1
 40
0.000000
 41
0.000000
  0
VERTEX
  8
GATE
 10
2.200000
 20
7.800000
  0
VERTEX
  8
GATE
 10
2.600000
 20
7.800000
  0
SEQEND
  8
GATE
  0
POLYLINE
  8
GATE
 66
1
 70
1
 40
0.020000
 41
0.020000
  0
VERTEX
  8
GATE
 10
-1.000000
 20
3.400000
  0
VERTEX
  8
GATE
 10
-1.000000
 20
4.400000
  0
VERTEX
  8
GATE
 10
-0.400000
 20
4.400000
  0
VERTEX
  8
GATE
 10
-0.400000
 20
3.400000
  0
VERTEX
  8
GATE
 10
-1.000000
 20
3.400000
  0
SEQEND
  8
GATE
  0
POLYLINE
  8
GATE
 66
1
 40
0.000000
 41
0.000000
  0
VERTEX
  8
GATE
 10
-1.400000
 20
3.600000
  0
VERTEX
  8
GATE
 10
-1.000000
 20
3.600000
  0
SEQEND
  8
GATE
  0
POLYLINE
  8
GATE
 66
1
 40
0.000000
 41
0.000000
  0
VERTEX
  8
GATE
 10
-1.000000
 20
3.800000
  0
VERTEX
  8
GATE
 10
-1.400000
 20
3.800000
  0
SEQEND
  8
GATE
  0
TEXT
  8
GATE
 10
-0.750000
 20
4.180000
 40
0.127500
  1
&
 50
0.000000
 41
0.880000
 72
4
 11
-0.700000
 21
4.250000
  0
POLYLINE
  8
GATE
 66
1
 40
0.000000
 41
0.000000
  0
VERTEX
  8
GATE
 10
-1.000000
 20
4.200000
  0
VERTEX
  8
GATE
 10
-1.400000
 20
4.200000
  0
SEQEND
  8
GATE
  0
POLYLINE
  8
GATE
 66
1
 40
0.000000
 41
0.000000
  0
VERTEX
  8
GATE
 10
-1.400000
 20
4.000000
  0
VERTEX
  8
GATE
 10
-1.000000
 20
4.000000
  0
SEQEND
  8
GATE
  0
POLYLINE
  8
GATE
 66
1
 40
0.000000
 41
0.000000
  0
VERTEX
  8
GATE
 10
-0.400000
 20
4.200000
  0
VERTEX
  8
GATE
 10
0.000000
 20
4.200000
  0
SEQEND
  8
GATE
  0
POLYLINE
  8
GATE
 66
1
 70
1
 40
0.020000
 41
0.020000
  0
VERTEX
  8
GATE
 10
-1.000000
 20
4.600000
  0
VERTEX
  8
GATE
 10
-1.000000
 20
5.600000
  0
VERTEX
  8
GATE
 10
-0.400000
 20
5.600000
  0
VERTEX
  8
GATE
 10
-0.400000
 20
4.600000
  0
VERTEX
  8
GATE
 10
-1.000000
 20
4.600000
  0
SEQEND
  8
GATE
  0
POLYLINE
  8
GATE
 66
1
 40
0.000000
 41
0.000000
  0
VERTEX
  8
GATE
 10
-1.400000
 20
4.800000
  0
VERTEX
  8
GATE
 10
-1.000000
 20
4.800000
  0
SEQEND
  8
GATE
  0
POLYLINE
  8
GATE
 66
1
 40
0.000000
 41
0.000000
  0
VERTEX
  8
GATE
 10
-1.000000
 20
5.000000
  0
VERTEX
  8
GATE
 10
-1.400000
 20
5.000000
  0
SEQEND
  8
GATE
  0
TEXT
  8
GATE
 10
-0.750000
 20
5.380000
 40
0.127500
  1
&
 50
0.000000
 41
0.880000
 72
4
 11
-0.700000
 21
5.450000
  0
POLYLINE
  8
GATE
 66
1
 40
0.000000
 41
0.000000
  0
VERTEX
  8
GATE
 10
-1.000000
 20
5.400000
  0
VERTEX
  8
GATE
 10
-1.400000
 20
5.400000
  0
SEQEND
  8
GATE
  0
POLYLINE
  8
GATE
 66
1
 40
0.000000
 41
0.000000
  0
VERTEX
  8
GATE
 10
-1.400000
 20
5.200000
  0
VERTEX
  8
GATE
 10
-1.000000
 20
5.200000
  0
SEQEND
  8
GATE
  0
POLYLINE
  8
GATE
 66
1
 40
0.000000
 41
0.000000
  0
VERTEX
  8
GATE
 10
-0.400000
 20
5.400000
  0
VERTEX
  8
GATE
 10
0.000000
 20
5.400000
  0
SEQEND
  8
GATE
  0
POLYLINE
  8
GATE
 66
1
 40
0.000000
 41
0.000000
  0
VERTEX
  8
GATE
 10
-1.000000
 20
7.000000
  0
VERTEX
  8
GATE
 10
-1.400000
 20
7.000000
  0
SEQEND
  8
GATE
  0
POLYLINE
  8
GATE
 66
1
 70
1
 40
0.020000
 41
0.020000
  0
VERTEX
  8
GATE
 10
-1.000000
 20
6.800000
  0
VERTEX
  8
GATE
 10
-1.000000
 20
7.600000
  0
VERTEX
  8
GATE
 10
-0.400000
 20
7.600000
  0
VERTEX
  8
GATE
 10
-0.400000
 20
6.800000
  0
VERTEX
  8
GATE
 10
-1.000000
 20
6.800000
  0
SEQEND
  8
GATE
  0
TEXT
  8
GATE
 10
-0.750000
 20
7.380000
 40
0.127500
  1
&
 50
0.000000
 41
0.880000
 72
4
 11
-0.700000
 21
7.450000
  0
POLYLINE
  8
GATE
 66
1
 40
0.000000
 41
0.000000
  0
VERTEX
  8
GATE
 10
-1.000000
 20
7.400000
  0
VERTEX
  8
GATE
 10
-1.400000
 20
7.400000
  0
SEQEND
  8
GATE
  0
POLYLINE
  8
GATE
 66
1
 40
0.000000
 41
0.000000
  0
VERTEX
  8
GATE
 10
-1.400000
 20
7.200000
  0
VERTEX
  8
GATE
 10
-1.000000
 20
7.200000
  0
SEQEND
  8
GATE
  0
POLYLINE
  8
GATE
 66
1
 40
0.000000
 41
0.000000
  0
VERTEX
  8
GATE
 10
-0.400000
 20
7.400000
  0
VERTEX
  8
GATE
 10
0.000000
 20
7.400000
  0
SEQEND
  8
GATE
  0
TEXT
  8
GATE
 10
-0.450000
 20
9.930000
 40
0.127500
  1
&
 50
0.000000
 41
0.880000
 72
4
 11
-0.400000
 21
10.000000
  0
POLYLINE
  8
GATE
 66
1
 70
1
 40
0.020000
 41
0.020000
  0
VERTEX
  8
GATE
 10
-0.700000
 20
9.000000
  0
VERTEX
  8
GATE
 10
-0.700000
 20
10.200000
  0
VERTEX
  8
GATE
 10
-0.100000
 20
10.200000
  0
VERTEX
  8
GATE
 10
-0.100000
 20
9.000000
  0
VERTEX
  8
GATE
 10
-0.700000
 20
9.000000
  0
SEQEND
  8
GATE
  0
POLYLINE
  8
GATE
 66
1
 40
0.000000
 41
0.000000
  0
VERTEX
  8
GATE
 10
-0.100000
 20
10.000000
  0
VERTEX
  8
GATE
 10
0.300000
 20
10.000000
  0
SEQEND
  8
GATE
  0
POLYLINE
  8
GATE
 66
1
 40
0.000000
 41
0.000000
  0
VERTEX
  8
GATE
 10
-1.100000
 20
10.000000
  0
VERTEX
  8
GATE
 10
-0.700000
 20
10.000000
  0
SEQEND
  8
GATE
  0
POLYLINE
  8
GATE
 66
1
 40
0.000000
 41
0.000000
  0
VERTEX
  8
GATE
 10
-0.700000
 20
9.800000
  0
VERTEX
  8
GATE
 10
-1.100000
 20
9.800000
  0
SEQEND
  8
GATE
  0
POLYLINE
  8
GATE
 66
1
 40
0.000000
 41
0.000000
  0
VERTEX
  8
GATE
 10
-1.100000
 20
9.600000
  0
VERTEX
  8
GATE
 10
-0.700000
 20
9.600000
  0
SEQEND
  8
GATE
  0
POLYLINE
  8
GATE
 66
1
 40
0.000000
 41
0.000000
  0
VERTEX
  8
GATE
 10
-0.700000
 20
9.400000
  0
VERTEX
  8
GATE
 10
-1.100000
 20
9.400000
  0
SEQEND
  8
GATE
  0
POLYLINE
  8
GATE
 66
1
 40
0.000000
 41
0.000000
  0
VERTEX
  8
GATE
 10
-1.100000
 20
9.200000
  0
VERTEX
  8
GATE
 10
-0.700000
 20
9.200000
  0
SEQEND
  8
GATE
  0
POLYLINE
  8
GATE
 66
1
 70
1
 40
0.020000
 41
0.020000
  0
VERTEX
  8
GATE
 10
-1.000000
 20
7.800000
  0
VERTEX
  8
GATE
 10
-1.000000
 20
8.800000
  0
VERTEX
  8
GATE
 10
-0.400000
 20
8.800000
  0
VERTEX
  8
GATE
 10
-0.400000
 20
7.800000
  0
VERTEX
  8
GATE
 10
-1.000000
 20
7.800000
  0
SEQEND
  8
GATE
  0
POLYLINE
  8
GATE
 66
1
 40
0.000000
 41
0.000000
  0
VERTEX
  8
GATE
 10
-1.400000
 20
8.000000
  0
VERTEX
  8
GATE
 10
-1.000000
 20
8.000000
  0
SEQEND
  8
GATE
  0
POLYLINE
  8
GATE
 66
1
 40
0.000000
 41
0.000000
  0
VERTEX
  8
GATE
 10
-1.000000
 20
8.200000
  0
VERTEX
  8
GATE
 10
-1.400000
 20
8.200000
  0
SEQEND
  8
GATE
  0
TEXT
  8
GATE
 10
-0.750000
 20
8.580000
 40
0.127500
  1
&
 50
0.000000
 41
0.880000
 72
4
 11
-0.700000
 21
8.650000
  0
POLYLINE
  8
GATE
 66
1
 40
0.000000
 41
0.000000
  0
VERTEX
  8
GATE
 10
-1.000000
 20
8.600000
  0
VERTEX
  8
GATE
 10
-1.400000
 20
8.600000
  0
SEQEND
  8
GATE
  0
POLYLINE
  8
GATE
 66
1
 40
0.000000
 41
0.000000
  0
VERTEX
  8
GATE
 10
-1.400000
 20
8.400000
  0
VERTEX
  8
GATE
 10
-1.000000
 20
8.400000
  0
SEQEND
  8
GATE
  0
POLYLINE
  8
GATE
 66
1
 40
0.000000
 41
0.000000
  0
VERTEX
  8
GATE
 10
-0.400000
 20
8.600000
  0
VERTEX
  8
GATE
 10
0.000000
 20
8.600000
  0
SEQEND
  8
GATE
  0
TEXT
  8
GATE
 10
2.520000
 20
13.880000
 40
0.212500
  1
1
 50
0.000000
 41
0.880000
 72
4
 11
2.600000
 21
14.000000
  0
POLYLINE
  8
GATE
 66
1
 40
0.000000
 41
0.000000
  0
VERTEX
  8
GATE
 10
2.200000
 20
14.000000
  0
VERTEX
  8
GATE
 10
2.400000
 20
14.000000
  0
SEQEND
  8
GATE
  0
POLYLINE
  8
GATE
 66
1
 40
0.000000
 41
0.000000
  0
VERTEX
  8
GATE
 10
2.400000
 20
13.800000
  0
VERTEX
  8
GATE
 10
2.200000
 20
13.800000
  0
SEQEND
  8
GATE
  0
POLYLINE
  8
GATE
 66
1
 40
0.000000
 41
0.000000
  0
VERTEX
  8
GATE
 10
2.400000
 20
13.600000
  0
VERTEX
  8
GATE
 10
2.200000
 20
13.600000
  0
SEQEND
  8
GATE
  0
POLYLINE
  8
GATE
 66
1
 40
0.000000
 41
0.000000
  0
VERTEX
  8
GATE
 10
3.000000
 20
14.000000
  0
VERTEX
  8
GATE
 10
3.200000
 20
14.000000
  0
SEQEND
  8
GATE
  0
POLYLINE
  8
GATE
 66
1
 70
1
 40
0.000000
 41
0.000000
  0
VERTEX
  8
GATE
 10
2.400000
 20
13.400000
  0
VERTEX
  8
GATE
 10
2.400000
 20
14.200000
  0
VERTEX
  8
GATE
 10
3.000000
 20
14.200000
  0
VERTEX
  8
GATE
 10
3.000000
 20
13.400000
  0
VERTEX
  8
GATE
 10
2.400000
 20
13.400000
  0
SEQEND
  8
GATE
  0
POLYLINE
  8
GATE
 66
1
 70
1
 40
0.020000
 41
0.020000
  0
VERTEX
  8
GATE
 10
-6.600000
 20
0.800000
  0
VERTEX
  8
GATE
 10
-6.600000
 20
1.400000
  0
VERTEX
  8
GATE
 10
-6.000000
 20
1.400000
  0
VERTEX
  8
GATE
 10
-6.000000
 20
0.800000
  0
VERTEX
  8
GATE
 10
-6.600000
 20
0.800000
  0
SEQEND
  8
GATE
  0
TEXT
  8
GATE
 10
-6.350000
 20
1.230000
 40
0.127500
  1
1
 50
0.000000
 41
0.880000
 72
4
 11
-6.300000
 21
1.300000
  0
POLYLINE
  8
GATE
 66
1
 40
0.000000
 41
0.000000
  0
VERTEX
  8
GATE
 10
-7.000000
 20
1.200000
  0
VERTEX
  8
GATE
 10
-6.600000
 20
1.200000
  0
SEQEND
  8
GATE
  0
POLYLINE
  8
GATE
 66
1
 40
0.000000
 41
0.000000
  0
VERTEX
  8
GATE
 10
-5.900000
 20
1.200000
  0
VERTEX
  8
GATE
 10
-5.600000
 20
1.200000
  0
SEQEND
  8
GATE
  0
CIRCLE
  8
GATE
 10
-5.950000
 20
1.200000
 40
0.050000
  0
POLYLINE
  8
GATE
 66
1
 70
1
 40
0.020000
 41
0.020000
  0
VERTEX
  8
GATE
 10
-6.600000
 20
13.400000
  0
VERTEX
  8
GATE
 10
-6.600000
 20
14.000000
  0
VERTEX
  8
GATE
 10
-6.000000
 20
14.000000
  0
VERTEX
  8
GATE
 10
-6.000000
 20
13.400000
  0
VERTEX
  8
GATE
 10
-6.600000
 20
13.400000
  0
SEQEND
  8
GATE
  0
TEXT
  8
GATE
 10
-6.350000
 20
13.830000
 40
0.127500
  1
1
 50
0.000000
 41
0.880000
 72
4
 11
-6.300000
 21
13.900000
  0
POLYLINE
  8
GATE
 66
1
 40
0.000000
 41
0.000000
  0
VERTEX
  8
GATE
 10
-7.000000
 20
13.800000
  0
VERTEX
  8
GATE
 10
-6.600000
 20
13.800000
  0
SEQEND
  8
GATE
  0
POLYLINE
  8
GATE
 66
1
 40
0.000000
 41
0.000000
  0
VERTEX
  8
GATE
 10
-5.900000
 20
13.800000
  0
VERTEX
  8
GATE
 10
-5.600000
 20
13.800000
  0
SEQEND
  8
GATE
  0
CIRCLE
  8
GATE
 10
-5.950000
 20
13.800000
 40
0.050000
  0
POLYLINE
  8
GATE
 66
1
 70
1
 40
0.020000
 41
0.020000
  0
VERTEX
  8
GATE
 10
-6.600000
 20
11.600000
  0
VERTEX
  8
GATE
 10
-6.600000
 20
12.200000
  0
VERTEX
  8
GATE
 10
-6.000000
 20
12.200000
  0
VERTEX
  8
GATE
 10
-6.000000
 20
11.600000
  0
VERTEX
  8
GATE
 10
-6.600000
 20
11.600000
  0
SEQEND
  8
GATE
  0
TEXT
  8
GATE
 10
-6.350000
 20
12.030000
 40
0.127500
  1
1
 50
0.000000
 41
0.880000
 72
4
 11
-6.300000
 21
12.100000
  0
POLYLINE
  8
GATE
 66
1
 40
0.000000
 41
0.000000
  0
VERTEX
  8
GATE
 10
-7.000000
 20
12.000000
  0
VERTEX
  8
GATE
 10
-6.600000
 20
12.000000
  0
SEQEND
  8
GATE
  0
POLYLINE
  8
GATE
 66
1
 40
0.000000
 41
0.000000
  0
VERTEX
  8
GATE
 10
-5.900000
 20
12.000000
  0
VERTEX
  8
GATE
 10
-5.600000
 20
12.000000
  0
SEQEND
  8
GATE
  0
CIRCLE
  8
GATE
 10
-5.950000
 20
12.000000
 40
0.050000
  0
POLYLINE
  8
GATE
 66
1
 70
1
 40
0.020000
 41
0.020000
  0
VERTEX
  8
GATE
 10
-6.600000
 20
9.800000
  0
VERTEX
  8
GATE
 10
-6.600000
 20
10.400000
  0
VERTEX
  8
GATE
 10
-6.000000
 20
10.400000
  0
VERTEX
  8
GATE
 10
-6.000000
 20
9.800000
  0
VERTEX
  8
GATE
 10
-6.600000
 20
9.800000
  0
SEQEND
  8
GATE
  0
TEXT
  8
GATE
 10
-6.350000
 20
10.230000
 40
0.127500
  1
1
 50
0.000000
 41
0.880000
 72
4
 11
-6.300000
 21
10.300000
  0
POLYLINE
  8
GATE
 66
1
 40
0.000000
 41
0.000000
  0
VERTEX
  8
GATE
 10
-7.000000
 20
10.200000
  0
VERTEX
  8
GATE
 10
-6.600000
 20
10.200000
  0
SEQEND
  8
GATE
  0
POLYLINE
  8
GATE
 66
1
 40
0.000000
 41
0.000000
  0
VERTEX
  8
GATE
 10
-5.900000
 20
10.200000
  0
VERTEX
  8
GATE
 10
-5.600000
 20
10.200000
  0
SEQEND
  8
GATE
  0
CIRCLE
  8
GATE
 10
-5.950000
 20
10.200000
 40
0.050000
  0
POLYLINE
  8
GATE
 66
1
 70
1
 40
0.020000
 41
0.020000
  0
VERTEX
  8
GATE
 10
-6.600000
 20
8.000000
  0
VERTEX
  8
GATE
 10
-6.600000
 20
8.600000
  0
VERTEX
  8
GATE
 10
-6.000000
 20
8.600000
  0
VERTEX
  8
GATE
 10
-6.000000
 20
8.000000
  0
VERTEX
  8
GATE
 10
-6.600000
 20
8.000000
  0
SEQEND
  8
GATE
  0
TEXT
  8
GATE
 10
-6.350000
 20
8.430000
 40
0.127500
  1
1
 50
0.000000
 41
0.880000
 72
4
 11
-6.300000
 21
8.500000
  0
POLYLINE
  8
GATE
 66
1
 40
0.000000
 41
0.000000
  0
VERTEX
  8
GATE
 10
-7.000000
 20
8.400000
  0
VERTEX
  8
GATE
 10
-6.600000
 20
8.400000
  0
SEQEND
  8
GATE
  0
POLYLINE
  8
GATE
 66
1
 40
0.000000
 41
0.000000
  0
VERTEX
  8
GATE
 10
-5.900000
 20
8.400000
  0
VERTEX
  8
GATE
 10
-5.600000
 20
8.400000
  0
SEQEND
  8
GATE
  0
CIRCLE
  8
GATE
 10
-5.950000
 20
8.400000
 40
0.050000
  0
POLYLINE
  8
GATE
 66
1
 70
1
 40
0.020000
 41
0.020000
  0
VERTEX
  8
GATE
 10
-6.600000
 20
6.200000
  0
VERTEX
  8
GATE
 10
-6.600000
 20
6.800000
  0
VERTEX
  8
GATE
 10
-6.000000
 20
6.800000
  0
VERTEX
  8
GATE
 10
-6.000000
 20
6.200000
  0
VERTEX
  8
GATE
 10
-6.600000
 20
6.200000
  0
SEQEND
  8
GATE
  0
TEXT
  8
GATE
 10
-6.350000
 20
6.630000
 40
0.127500
  1
1
 50
0.000000
 41
0.880000
 72
4
 11
-6.300000
 21
6.700000
  0
POLYLINE
  8
GATE
 66
1
 40
0.000000
 41
0.000000
  0
VERTEX
  8
GATE
 10
-7.000000
 20
6.600000
  0
VERTEX
  8
GATE
 10
-6.600000
 20
6.600000
  0
SEQEND
  8
GATE
  0
POLYLINE
  8
GATE
 66
1
 40
0.000000
 41
0.000000
  0
VERTEX
  8
GATE
 10
-5.900000
 20
6.600000
  0
VERTEX
  8
GATE
 10
-5.600000
 20
6.600000
  0
SEQEND
  8
GATE
  0
CIRCLE
  8
GATE
 10
-5.950000
 20
6.600000
 40
0.050000
  0
POLYLINE
  8
GATE
 66
1
 70
1
 40
0.020000
 41
0.020000
  0
VERTEX
  8
GATE
 10
-6.600000
 20
4.400000
  0
VERTEX
  8
GATE
 10
-6.600000
 20
5.000000
  0
VERTEX
  8
GATE
 10
-6.000000
 20
5.000000
  0
VERTEX
  8
GATE
 10
-6.000000
 20
4.400000
  0
VERTEX
  8
GATE
 10
-6.600000
 20
4.400000
  0
SEQEND
  8
GATE
  0
TEXT
  8
GATE
 10
-6.350000
 20
4.830000
 40
0.127500
  1
1
 50
0.000000
 41
0.880000
 72
4
 11
-6.300000
 21
4.900000
  0
POLYLINE
  8
GATE
 66
1
 40
0.000000
 41
0.000000
  0
VERTEX
  8
GATE
 10
-7.000000
 20
4.800000
  0
VERTEX
  8
GATE
 10
-6.600000
 20
4.800000
  0
SEQEND
  8
GATE
  0
POLYLINE
  8
GATE
 66
1
 40
0.000000
 41
0.000000
  0
VERTEX
  8
GATE
 10
-5.900000
 20
4.800000
  0
VERTEX
  8
GATE
 10
-5.600000
 20
4.800000
  0
SEQEND
  8
GATE
  0
CIRCLE
  8
GATE
 10
-5.950000
 20
4.800000
 40
0.050000
  0
POLYLINE
  8
GATE
 66
1
 70
1
 40
0.020000
 41
0.020000
  0
VERTEX
  8
GATE
 10
-6.600000
 20
2.600000
  0
VERTEX
  8
GATE
 10
-6.600000
 20
3.200000
  0
VERTEX
  8
GATE
 10
-6.000000
 20
3.200000
  0
VERTEX
  8
GATE
 10
-6.000000
 20
2.600000
  0
VERTEX
  8
GATE
 10
-6.600000
 20
2.600000
  0
SEQEND
  8
GATE
  0
TEXT
  8
GATE
 10
-6.350000
 20
3.030000
 40
0.127500
  1
1
 50
0.000000
 41
0.880000
 72
4
 11
-6.300000
 21
3.100000
  0
POLYLINE
  8
GATE
 66
1
 40
0.000000
 41
0.000000
  0
VERTEX
  8
GATE
 10
-7.000000
 20
3.000000
  0
VERTEX
  8
GATE
 10
-6.600000
 20
3.000000
  0
SEQEND
  8
GATE
  0
POLYLINE
  8
GATE
 66
1
 40
0.000000
 41
0.000000
  0
VERTEX
  8
GATE
 10
-5.900000
 20
3.000000
  0
VERTEX
  8
GATE
 10
-5.600000
 20
3.000000
  0
SEQEND
  8
GATE
  0
CIRCLE
  8
GATE
 10
-5.950000
 20
3.000000
 40
0.050000
  0
POLYLINE
  8
WIRES
 66
1
 70
1
 40
0.050000
 41
0.050000
  0
VERTEX
  8
WIRES
 10
-1.620000
 20
8.000000
 42
1.000000
  0
VERTEX
  8
WIRES
 10
-1.580000
 20
8.000000
 42
1.000000
  0
SEQEND
  8
WIRES
  0
POLYLINE
  8
WIRES
 66
1
 70
1
 40
0.050000
 41
0.050000
  0
VERTEX
  8
WIRES
 10
-1.620000
 20
7.000000
 42
1.000000
  0
VERTEX
  8
WIRES
 10
-1.580000
 20
7.000000
 42
1.000000
  0
SEQEND
  8
WIRES
  0
POLYLINE
  8
WIRES
 66
1
 70
1
 40
0.050000
 41
0.050000
  0
VERTEX
  8
WIRES
 10
-1.620000
 20
4.800000
 42
1.000000
  0
VERTEX
  8
WIRES
 10
-1.580000
 20
4.800000
 42
1.000000
  0
SEQEND
  8
WIRES
  0
POLYLINE
  8
WIRES
 66
1
 70
1
 40
0.050000
 41
0.050000
  0
VERTEX
  8
WIRES
 10
-1.620000
 20
3.600000
 42
1.000000
  0
VERTEX
  8
WIRES
 10
-1.580000
 20
3.600000
 42
1.000000
  0
SEQEND
  8
WIRES
  0
POLYLINE
  8
WIRES
 66
1
 70
1
 40
0.050000
 41
0.050000
  0
VERTEX
  8
WIRES
 10
-1.620000
 20
1.000000
 42
1.000000
  0
VERTEX
  8
WIRES
 10
-1.580000
 20
1.000000
 42
1.000000
  0
SEQEND
  8
WIRES
  0
POLYLINE
  8
WIRES
 66
1
 70
1
 40
0.050000
 41
0.050000
  0
VERTEX
  8
WIRES
 10
-1.620000
 20
0.200000
 42
1.000000
  0
VERTEX
  8
WIRES
 10
-1.580000
 20
0.200000
 42
1.000000
  0
SEQEND
  8
WIRES
  0
POLYLINE
  8
WIRES
 66
1
 70
1
 40
0.050000
 41
0.050000
  0
VERTEX
  8
WIRES
 10
-1.620000
 20
-0.600000
 42
1.000000
  0
VERTEX
  8
WIRES
 10
-1.580000
 20
-0.600000
 42
1.000000
  0
SEQEND
  8
WIRES
  0
POLYLINE
  8
WIRES
 66
1
 70
1
 40
0.050000
 41
0.050000
  0
VERTEX
  8
WIRES
 10
-1.620000
 20
-1.400000
 42
1.000000
  0
VERTEX
  8
WIRES
 10
-1.580000
 20
-1.400000
 42
1.000000
  0
SEQEND
  8
WIRES
  0
POLYLINE
  8
WIRES
 66
1
 40
0.000000
 41
0.000000
  0
VERTEX
  8
WIRES
 10
-1.600000
 20
8.000000
  0
VERTEX
  8
WIRES
 10
-1.600000
 20
9.200000
  0
VERTEX
  8
WIRES
 10
-1.100000
 20
9.200000
  0
SEQEND
  8
WIRES
  0
POLYLINE
  8
WIRES
 66
1
 40
0.000000
 41
0.000000
  0
VERTEX
  8
WIRES
 10
-1.600000
 20
7.000000
  0
VERTEX
  8
WIRES
 10
-1.600000
 20
8.000000
  0
VERTEX
  8
WIRES
 10
-1.400000
 20
8.000000
  0
SEQEND
  8
WIRES
  0
POLYLINE
  8
WIRES
 66
1
 40
0.000000
 41
0.000000
  0
VERTEX
  8
WIRES
 10
-1.600000
 20
4.800000
  0
VERTEX
  8
WIRES
 10
-1.600000
 20
7.000000
  0
VERTEX
  8
WIRES
 10
-1.400000
 20
7.000000
  0
SEQEND
  8
WIRES
  0
POLYLINE
  8
WIRES
 66
1
 40
0.000000
 41
0.000000
  0
VERTEX
  8
WIRES
 10
-1.600000
 20
3.600000
  0
VERTEX
  8
WIRES
 10
-1.600000
 20
4.800000
  0
VERTEX
  8
WIRES
 10
-1.400000
 20
4.800000
  0
SEQEND
  8
WIRES
  0
POLYLINE
  8
WIRES
 66
1
 40
0.000000
 41
0.000000
  0
VERTEX
  8
WIRES
 10
-1.600000
 20
1.000000
  0
VERTEX
  8
WIRES
 10
-1.600000
 20
3.600000
  0
VERTEX
  8
WIRES
 10
-1.400000
 20
3.600000
  0
SEQEND
  8
WIRES
  0
POLYLINE
  8
WIRES
 66
1
 40
0.000000
 41
0.000000
  0
VERTEX
  8
WIRES
 10
-1.600000
 20
0.200000
  0
VERTEX
  8
WIRES
 10
-1.600000
 20
1.000000
  0
VERTEX
  8
WIRES
 10
-1.400000
 20
1.000000
  0
SEQEND
  8
WIRES
  0
POLYLINE
  8
WIRES
 66
1
 40
0.000000
 41
0.000000
  0
VERTEX
  8
WIRES
 10
-1.600000
 20
-0.600000
  0
VERTEX
  8
WIRES
 10
-1.600000
 20
0.200000
  0
VERTEX
  8
WIRES
 10
-1.400000
 20
0.200000
  0
SEQEND
  8
WIRES
  0
POLYLINE
  8
WIRES
 66
1
 40
0.000000
 41
0.000000
  0
VERTEX
  8
WIRES
 10
-1.600000
 20
-1.400000
  0
VERTEX
  8
WIRES
 10
-1.600000
 20
-0.600000
  0
VERTEX
  8
WIRES
 10
-1.400000
 20
-0.600000
  0
SEQEND
  8
WIRES
  0
POLYLINE
  8
WIRES
 66
1
 40
0.000000
 41
0.000000
  0
VERTEX
  8
WIRES
 10
-5.600000
 20
1.200000
  0
VERTEX
  8
WIRES
 10
-5.600000
 20
-1.400000
  0
VERTEX
  8
WIRES
 10
-1.600000
 20
-1.400000
  0
VERTEX
  8
WIRES
 10
-1.400000
 20
-1.400000
  0
SEQEND
  8
WIRES
  0
POLYLINE
  8
WIRES
 66
1
 40
0.000000
 41
0.000000
  0
VERTEX
  8
WIRES
 10
-5.600000
 20
3.000000
  0
VERTEX
  8
WIRES
 10
-5.600000
 20
2.900000
  0
VERTEX
  8
WIRES
 10
-5.400000
 20
2.900000
  0
VERTEX
  8
WIRES
 10
-5.400000
 20
-1.200000
  0
VERTEX
  8
WIRES
 10
-1.400000
 20
-1.200000
  0
SEQEND
  8
WIRES
  0
TEXT
  8
PINCON
 10
-5.500000
 20
3.000000
 40
0.127500
  1
I8
 50
0.000000
 41
0.880000
  0
POLYLINE
  8
WIRES
 66
1
 40
0.000000
 41
0.000000
  0
VERTEX
  8
WIRES
 10
0.000000
 20
10.800000
  0
VERTEX
  8
WIRES
 10
-0.200000
 20
10.800000
  0
VERTEX
  8
WIRES
 10
-0.200000
 20
12.800000
  0
VERTEX
  8
WIRES
 10
1.200000
 20
12.800000
  0
VERTEX
  8
WIRES
 10
1.200000
 20
13.800000
  0
VERTEX
  8
WIRES
 10
2.200000
 20
13.800000
  0
SEQEND
  8
WIRES
  0
TEXT
  8
PINCON
 10
-0.400000
 20
12.900000
 40
0.127500
  1
T2
 50
0.000000
 41
0.880000
  0
POLYLINE
  8
WIRES
 66
1
 70
1
 40
0.050000
 41
0.050000
  0
VERTEX
  8
WIRES
 10
-0.020000
 20
14.000000
 42
1.000000
  0
VERTEX
  8
WIRES
 10
0.020000
 20
14.000000
 42
1.000000
  0
SEQEND
  8
WIRES
  0
POLYLINE
  8
WIRES
 66
1
 40
0.000000
 41
0.000000
  0
VERTEX
  8
WIRES
 10
0.000000
 20
14.000000
  0
VERTEX
  8
WIRES
 10
2.200000
 20
14.000000
  0
SEQEND
  8
WIRES
  0
POLYLINE
  8
WIRES
 66
1
 40
0.000000
 41
0.000000
  0
VERTEX
  8
WIRES
 10
-0.200000
 20
14.000000
  0
VERTEX
  8
WIRES
 10
0.000000
 20
14.000000
  0
VERTEX
  8
WIRES
 10
0.000000
 20
11.000000
  0
SEQEND
  8
WIRES
  0
TEXT
  8
PINCON
 10
0.000000
 20
14.100000
 40
0.127500
  1
T1
 50
0.000000
 41
0.880000
  0
POLYLINE
  8
WIRES
 66
1
 40
0.000000
 41
0.000000
  0
VERTEX
  8
WIRES
 10
1.400000
 20
11.000000
  0
VERTEX
  8
WIRES
 10
2.000000
 20
11.000000
  0
SEQEND
  8
WIRES
  0
TEXT
  8
PINCON
 10
1.300000
 20
11.100000
 40
0.127500
  1
T3
 50
0.000000
 41
0.880000
  0
POLYLINE
  8
WIRES
 66
1
 40
0.000000
 41
0.000000
  0
VERTEX
  8
WIRES
 10
-5.600000
 20
4.800000
  0
VERTEX
  8
WIRES
 10
-5.200000
 20
4.800000
  0
VERTEX
  8
WIRES
 10
-5.200000
 20
-0.400000
  0
VERTEX
  8
WIRES
 10
-1.400000
 20
-0.400000
  0
SEQEND
  8
WIRES
  0
TEXT
  8
PINCON
 10
-5.600000
 20
4.900000
 40
0.127500
  1
I7
 50
0.000000
 41
0.880000
  0
POLYLINE
  8
WIRES
 66
1
 70
1
 40
0.050000
 41
0.050000
  0
VERTEX
  8
WIRES
 10
-5.020000
 20
8.200000
 42
1.000000
  0
VERTEX
  8
WIRES
 10
-4.980000
 20
8.200000
 42
1.000000
  0
SEQEND
  8
WIRES
  0
POLYLINE
  8
WIRES
 66
1
 70
1
 40
0.050000
 41
0.050000
  0
VERTEX
  8
WIRES
 10
-5.020000
 20
7.200000
 42
1.000000
  0
VERTEX
  8
WIRES
 10
-4.980000
 20
7.200000
 42
1.000000
  0
SEQEND
  8
WIRES
  0
POLYLINE
  8
WIRES
 66
1
 70
1
 40
0.050000
 41
0.050000
  0
VERTEX
  8
WIRES
 10
-7.420000
 20
4.800000
 42
1.000000
  0
VERTEX
  8
WIRES
 10
-7.380000
 20
4.800000
 42
1.000000
  0
SEQEND
  8
WIRES
  0
TEXT
  8
PINCON
 10
-7.800000
 20
4.900000
 40
0.127500
  1
%%oI7%%o
 50
0.000000
 41
0.880000
  0
POLYLINE
  8
WIRES
 66
1
 40
0.000000
 41
0.000000
  0
VERTEX
  8
WIRES
 10
-1.400000
 20
7.200000
  0
VERTEX
  8
WIRES
 10
-5.000000
 20
7.200000
  0
VERTEX
  8
WIRES
 10
-5.000000
 20
5.200000
  0
VERTEX
  8
WIRES
 10
-7.000000
 20
5.200000
  0
VERTEX
  8
WIRES
 10
-7.000000
 20
4.800000
  0
VERTEX
  8
WIRES
 10
-7.400000
 20
4.800000
  0
VERTEX
  8
WIRES
 10
-8.800000
 20
4.800000
  0
SEQEND
  8
WIRES
  0
POLYLINE
  8
WIRES
 66
1
 40
0.000000
 41
0.000000
  0
VERTEX
  8
WIRES
 10
-5.000000
 20
8.200000
  0
VERTEX
  8
WIRES
 10
-5.000000
 20
9.400000
  0
VERTEX
  8
WIRES
 10
-1.100000
 20
9.400000
  0
VERTEX
  8
WIRES
 10
-1.000000
 20
9.400000
  0
SEQEND
  8
WIRES
  0
POLYLINE
  8
WIRES
 66
1
 40
0.000000
 41
0.000000
  0
VERTEX
  8
WIRES
 10
-5.000000
 20
7.200000
  0
VERTEX
  8
WIRES
 10
-5.000000
 20
8.200000
  0
VERTEX
  8
WIRES
 10
-1.400000
 20
8.200000
  0
SEQEND
  8
WIRES
  0
POLYLINE
  8
WIRES
 66
1
 40
0.000000
 41
0.000000
  0
VERTEX
  8
WIRES
 10
-7.400000
 20
4.800000
  0
VERTEX
  8
WIRES
 10
-7.400000
 20
14.400000
  0
VERTEX
  8
WIRES
 10
-2.800000
 20
14.400000
  0
VERTEX
  8
WIRES
 10
-2.800000
 20
12.400000
  0
VERTEX
  8
WIRES
 10
-1.600000
 20
12.400000
  0
SEQEND
  8
WIRES
  0
POLYLINE
  8
WIRES
 66
1
 70
1
 40
0.050000
 41
0.050000
  0
VERTEX
  8
WIRES
 10
-7.220000
 20
3.000000
 42
1.000000
  0
VERTEX
  8
WIRES
 10
-7.180000
 20
3.000000
 42
1.000000
  0
SEQEND
  8
WIRES
  0
TEXT
  8
PINCON
 10
-7.600000
 20
3.100000
 40
0.127500
  1
%%oI8%%o
 50
0.000000
 41
0.880000
  0
POLYLINE
  8
WIRES
 66
1
 40
0.000000
 41
0.000000
  0
VERTEX
  8
WIRES
 10
-7.000000
 20
3.000000
  0
VERTEX
  8
WIRES
 10
-7.200000
 20
3.000000
  0
VERTEX
  8
WIRES
 10
-8.800000
 20
3.000000
  0
SEQEND
  8
WIRES
  0
POLYLINE
  8
WIRES
 66
1
 40
0.000000
 41
0.000000
  0
VERTEX
  8
WIRES
 10
-7.200000
 20
3.000000
  0
VERTEX
  8
WIRES
 10
-7.200000
 20
14.200000
  0
VERTEX
  8
WIRES
 10
-3.000000
 20
14.200000
  0
VERTEX
  8
WIRES
 10
-3.000000
 20
12.200000
  0
VERTEX
  8
WIRES
 10
-1.600000
 20
12.200000
  0
SEQEND
  8
WIRES
  0
TEXT
  8
PINCON
 10
-7.400000
 20
1.300000
 40
0.127500
  1
%%oEI%%o
 50
0.000000
 41
0.880000
  0
POLYLINE
  8
WIRES
 66
1
 70
1
 40
0.050000
 41
0.050000
  0
VERTEX
  8
WIRES
 10
1.780000
 20
10.800000
 42
1.000000
  0
VERTEX
  8
WIRES
 10
1.820000
 20
10.800000
 42
1.000000
  0
SEQEND
  8
WIRES
  0
POLYLINE
  8
WIRES
 66
1
 70
1
 40
0.050000
 41
0.050000
  0
VERTEX
  8
WIRES
 10
-7.220000
 20
1.200000
 42
1.000000
  0
VERTEX
  8
WIRES
 10
-7.180000
 20
1.200000
 42
1.000000
  0
SEQEND
  8
WIRES
  0
POLYLINE
  8
WIRES
 66
1
 40
0.000000
 41
0.000000
  0
VERTEX
  8
WIRES
 10
-7.000000
 20
1.200000
  0
VERTEX
  8
WIRES
 10
-7.200000
 20
1.200000
  0
VERTEX
  8
WIRES
 10
-8.800000
 20
1.200000
  0
SEQEND
  8
WIRES
  0
POLYLINE
  8
WIRES
 66
1
 40
0.000000
 41
0.000000
  0
VERTEX
  8
WIRES
 10
1.800000
 20
10.800000
  0
VERTEX
  8
WIRES
 10
1.800000
 20
13.600000
  0
VERTEX
  8
WIRES
 10
2.200000
 20
13.600000
  0
SEQEND
  8
WIRES
  0
POLYLINE
  8
WIRES
 66
1
 40
0.000000
 41
0.000000
  0
VERTEX
  8
WIRES
 10
-7.200000
 20
1.200000
  0
VERTEX
  8
WIRES
 10
-7.200000
 20
-1.800000
  0
VERTEX
  8
WIRES
 10
1.800000
 20
-1.800000
  0
VERTEX
  8
WIRES
 10
1.800000
 20
10.800000
  0
VERTEX
  8
WIRES
 10
2.000000
 20
10.800000
  0
SEQEND
  8
WIRES
  0
POLYLINE
  8
WIRES
 66
1
 70
1
 40
0.050000
 41
0.050000
  0
VERTEX
  8
WIRES
 10
-4.620000
 20
5.000000
 42
1.000000
  0
VERTEX
  8
WIRES
 10
-4.580000
 20
5.000000
 42
1.000000
  0
SEQEND
  8
WIRES
  0
POLYLINE
  8
WIRES
 66
1
 70
1
 40
0.050000
 41
0.050000
  0
VERTEX
  8
WIRES
 10
-7.620000
 20
6.600000
 42
1.000000
  0
VERTEX
  8
WIRES
 10
-7.580000
 20
6.600000
 42
1.000000
  0
SEQEND
  8
WIRES
  0
TEXT
  8
PINCON
 10
-8.000000
 20
6.700000
 40
0.127500
  1
%%oI6%%o
 50
0.000000
 41
0.880000
  0
POLYLINE
  8
WIRES
 66
1
 40
0.000000
 41
0.000000
  0
VERTEX
  8
WIRES
 10
-1.400000
 20
5.000000
  0
VERTEX
  8
WIRES
 10
-4.600000
 20
5.000000
  0
VERTEX
  8
WIRES
 10
-4.600000
 20
5.800000
  0
VERTEX
  8
WIRES
 10
-7.000000
 20
5.800000
  0
VERTEX
  8
WIRES
 10
-7.000000
 20
6.600000
  0
VERTEX
  8
WIRES
 10
-7.600000
 20
6.600000
  0
VERTEX
  8
WIRES
 10
-8.800000
 20
6.600000
  0
SEQEND
  8
WIRES
  0
POLYLINE
  8
WIRES
 66
1
 40
0.000000
 41
0.000000
  0
VERTEX
  8
WIRES
 10
-4.600000
 20
5.000000
  0
VERTEX
  8
WIRES
 10
-4.600000
 20
3.800000
  0
VERTEX
  8
WIRES
 10
-1.400000
 20
3.800000
  0
SEQEND
  8
WIRES
  0
POLYLINE
  8
WIRES
 66
1
 40
0.000000
 41
0.000000
  0
VERTEX
  8
WIRES
 10
-7.600000
 20
6.600000
  0
VERTEX
  8
WIRES
 10
-7.600000
 20
14.600000
  0
VERTEX
  8
WIRES
 10
-2.600000
 20
14.600000
  0
VERTEX
  8
WIRES
 10
-2.600000
 20
12.600000
  0
VERTEX
  8
WIRES
 10
-1.600000
 20
12.600000
  0
SEQEND
  8
WIRES
  0
POLYLINE
  8
WIRES
 66
1
 70
1
 40
0.050000
 41
0.050000
  0
VERTEX
  8
WIRES
 10
-4.220000
 20
5.200000
 42
1.000000
  0
VERTEX
  8
WIRES
 10
-4.180000
 20
5.200000
 42
1.000000
  0
SEQEND
  8
WIRES
  0
POLYLINE
  8
WIRES
 66
1
 70
1
 40
0.050000
 41
0.050000
  0
VERTEX
  8
WIRES
 10
-4.220000
 20
8.400000
 42
1.000000
  0
VERTEX
  8
WIRES
 10
-4.180000
 20
8.400000
 42
1.000000
  0
SEQEND
  8
WIRES
  0
POLYLINE
  8
WIRES
 66
1
 70
1
 40
0.050000
 41
0.050000
  0
VERTEX
  8
WIRES
 10
-4.220000
 20
9.000000
 42
1.000000
  0
VERTEX
  8
WIRES
 10
-4.180000
 20
9.000000
 42
1.000000
  0
SEQEND
  8
WIRES
  0
POLYLINE
  8
WIRES
 66
1
 70
1
 40
0.050000
 41
0.050000
  0
VERTEX
  8
WIRES
 10
-7.820000
 20
8.400000
 42
1.000000
  0
VERTEX
  8
WIRES
 10
-7.780000
 20
8.400000
 42
1.000000
  0
SEQEND
  8
WIRES
  0
TEXT
  8
PINCON
 10
-8.200000
 20
8.500000
 40
0.127500
  1
%%oI5%%o
 50
0.000000
 41
0.880000
  0
POLYLINE
  8
WIRES
 66
1
 40
0.000000
 41
0.000000
  0
VERTEX
  8
WIRES
 10
-1.000000
 20
9.800000
  0
VERTEX
  8
WIRES
 10
-1.100000
 20
9.800000
  0
VERTEX
  8
WIRES
 10
-4.200000
 20
9.800000
  0
VERTEX
  8
WIRES
 10
-4.200000
 20
9.000000
  0
VERTEX
  8
WIRES
 10
-7.000000
 20
9.000000
  0
VERTEX
  8
WIRES
 10
-7.000000
 20
8.400000
  0
VERTEX
  8
WIRES
 10
-7.800000
 20
8.400000
  0
VERTEX
  8
WIRES
 10
-8.800000
 20
8.400000
  0
SEQEND
  8
WIRES
  0
POLYLINE
  8
WIRES
 66
1
 40
0.000000
 41
0.000000
  0
VERTEX
  8
WIRES
 10
-4.200000
 20
5.200000
  0
VERTEX
  8
WIRES
 10
-4.200000
 20
4.200000
  0
VERTEX
  8
WIRES
 10
-1.400000
 20
4.200000
  0
SEQEND
  8
WIRES
  0
POLYLINE
  8
WIRES
 66
1
 40
0.000000
 41
0.000000
  0
VERTEX
  8
WIRES
 10
-4.200000
 20
8.400000
  0
VERTEX
  8
WIRES
 10
-4.200000
 20
5.200000
  0
VERTEX
  8
WIRES
 10
-1.400000
 20
5.200000
  0
SEQEND
  8
WIRES
  0
POLYLINE
  8
WIRES
 66
1
 40
0.000000
 41
0.000000
  0
VERTEX
  8
WIRES
 10
-4.200000
 20
9.000000
  0
VERTEX
  8
WIRES
 10
-4.200000
 20
8.400000
  0
VERTEX
  8
WIRES
 10
-1.400000
 20
8.400000
  0
SEQEND
  8
WIRES
  0
POLYLINE
  8
WIRES
 66
1
 40
0.000000
 41
0.000000
  0
VERTEX
  8
WIRES
 10
-7.800000
 20
8.400000
  0
VERTEX
  8
WIRES
 10
-7.800000
 20
14.800000
  0
VERTEX
  8
WIRES
 10
-2.400000
 20
14.800000
  0
VERTEX
  8
WIRES
 10
-2.400000
 20
12.800000
  0
VERTEX
  8
WIRES
 10
-1.600000
 20
12.800000
  0
SEQEND
  8
WIRES
  0
POLYLINE
  8
WIRES
 66
1
 70
1
 40
0.050000
 41
0.050000
  0
VERTEX
  8
WIRES
 10
-8.020000
 20
10.200000
 42
1.000000
  0
VERTEX
  8
WIRES
 10
-7.980000
 20
10.200000
 42
1.000000
  0
SEQEND
  8
WIRES
  0
TEXT
  8
PINCON
 10
-8.400000
 20
10.300000
 40
0.127500
  1
%%oI4%%o
 50
0.000000
 41
0.880000
  0
POLYLINE
  8
WIRES
 66
1
 40
0.000000
 41
0.000000
  0
VERTEX
  8
WIRES
 10
-7.000000
 20
10.200000
  0
VERTEX
  8
WIRES
 10
-8.000000
 20
10.200000
  0
VERTEX
  8
WIRES
 10
-8.800000
 20
10.200000
  0
SEQEND
  8
WIRES
  0
POLYLINE
  8
WIRES
 66
1
 40
0.000000
 41
0.000000
  0
VERTEX
  8
WIRES
 10
-8.000000
 20
10.200000
  0
VERTEX
  8
WIRES
 10
-8.000000
 20
15.000000
  0
VERTEX
  8
WIRES
 10
-2.200000
 20
15.000000
  0
VERTEX
  8
WIRES
 10
-2.200000
 20
13.400000
  0
VERTEX
  8
WIRES
 10
-1.600000
 20
13.400000
  0
SEQEND
  8
WIRES
  0
POLYLINE
  8
WIRES
 66
1
 70
1
 40
0.050000
 41
0.050000
  0
VERTEX
  8
WIRES
 10
-8.220000
 20
12.000000
 42
1.000000
  0
VERTEX
  8
WIRES
 10
-8.180000
 20
12.000000
 42
1.000000
  0
SEQEND
  8
WIRES
  0
TEXT
  8
PINCON
 10
-8.600000
 20
12.100000
 40
0.127500
  1
%%oI3%%o
 50
0.000000
 41
0.880000
  0
POLYLINE
  8
WIRES
 66
1
 40
0.000000
 41
0.000000
  0
VERTEX
  8
WIRES
 10
-1.000000
 20
9.600000
  0
VERTEX
  8
WIRES
 10
-1.100000
 20
9.600000
  0
VERTEX
  8
WIRES
 10
-3.600000
 20
9.600000
  0
VERTEX
  8
WIRES
 10
-3.600000
 20
11.000000
  0
VERTEX
  8
WIRES
 10
-7.000000
 20
11.000000
  0
VERTEX
  8
WIRES
 10
-7.000000
 20
12.000000
  0
VERTEX
  8
WIRES
 10
-8.200000
 20
12.000000
  0
VERTEX
  8
WIRES
 10
-8.800000
 20
12.000000
  0
SEQEND
  8
WIRES
  0
POLYLINE
  8
WIRES
 66
1
 40
0.000000
 41
0.000000
  0
VERTEX
  8
WIRES
 10
-8.200000
 20
12.000000
  0
VERTEX
  8
WIRES
 10
-8.200000
 20
15.200000
  0
VERTEX
  8
WIRES
 10
-2.000000
 20
15.200000
  0
VERTEX
  8
WIRES
 10
-2.000000
 20
13.600000
  0
VERTEX
  8
WIRES
 10
-1.600000
 20
13.600000
  0
SEQEND
  8
WIRES
  0
POLYLINE
  8
WIRES
 66
1
 70
1
 40
0.050000
 41
0.050000
  0
VERTEX
  8
WIRES
 10
-8.420000
 20
13.800000
 42
1.000000
  0
VERTEX
  8
WIRES
 10
-8.380000
 20
13.800000
 42
1.000000
  0
SEQEND
  8
WIRES
  0
TEXT
  8
PINCON
 10
-8.800000
 20
13.900000
 40
0.127500
  1
%%oI2%%o
 50
0.000000
 41
0.880000
  0
POLYLINE
  8
WIRES
 66
1
 40
0.000000
 41
0.000000
  0
VERTEX
  8
WIRES
 10
-7.000000
 20
13.800000
  0
VERTEX
  8
WIRES
 10
-8.400000
 20
13.800000
  0
VERTEX
  8
WIRES
 10
-8.800000
 20
13.800000
  0
SEQEND
  8
WIRES
  0
POLYLINE
  8
WIRES
 66
1
 40
0.000000
 41
0.000000
  0
VERTEX
  8
WIRES
 10
-8.400000
 20
13.800000
  0
VERTEX
  8
WIRES
 10
-8.400000
 20
15.400000
  0
VERTEX
  8
WIRES
 10
-1.800000
 20
15.400000
  0
VERTEX
  8
WIRES
 10
-1.800000
 20
13.800000
  0
VERTEX
  8
WIRES
 10
-1.600000
 20
13.800000
  0
SEQEND
  8
WIRES
  0
POLYLINE
  8
WIRES
 66
1
 40
0.000000
 41
0.000000
  0
VERTEX
  8
WIRES
 10
-8.800000
 20
15.600000
  0
VERTEX
  8
WIRES
 10
-1.600000
 20
15.600000
  0
VERTEX
  8
WIRES
 10
-1.600000
 20
14.000000
  0
SEQEND
  8
WIRES
  0
TEXT
  8
PINCON
 10
-8.800000
 20
15.700000
 40
0.127500
  1
%%oI1%%o
 50
0.000000
 41
0.880000
  0
TEXT
  8
PINCON
 10
-5.600000
 20
6.700000
 40
0.127500
  1
I6
 50
0.000000
 41
0.880000
  0
POLYLINE
  8
WIRES
 66
1
 40
0.000000
 41
0.000000
  0
VERTEX
  8
WIRES
 10
-4.800000
 20
6.600000
  0
VERTEX
  8
WIRES
 10
-4.800000
 20
7.400000
  0
VERTEX
  8
WIRES
 10
-1.400000
 20
7.400000
  0
SEQEND
  8
WIRES
  0
POLYLINE
  8
WIRES
 66
1
 40
0.000000
 41
0.000000
  0
VERTEX
  8
WIRES
 10
-5.600000
 20
6.600000
  0
VERTEX
  8
WIRES
 10
-4.800000
 20
6.600000
  0
VERTEX
  8
WIRES
 10
-4.800000
 20
0.400000
  0
VERTEX
  8
WIRES
 10
-1.400000
 20
0.400000
  0
SEQEND
  8
WIRES
  0
POLYLINE
  8
WIRES
 66
1
 70
1
 40
0.050000
 41
0.050000
  0
VERTEX
  8
WIRES
 10
-4.820000
 20
6.600000
 42
1.000000
  0
VERTEX
  8
WIRES
 10
-4.780000
 20
6.600000
 42
1.000000
  0
SEQEND
  8
WIRES
  0
POLYLINE
  8
WIRES
 66
1
 40
0.000000
 41
0.000000
  0
VERTEX
  8
WIRES
 10
-5.600000
 20
8.400000
  0
VERTEX
  8
WIRES
 10
-4.400000
 20
8.400000
  0
VERTEX
  8
WIRES
 10
-4.400000
 20
1.200000
  0
VERTEX
  8
WIRES
 10
-1.400000
 20
1.200000
  0
SEQEND
  8
WIRES
  0
TEXT
  8
PINCON
 10
-5.600000
 20
8.500000
 40
0.127500
  1
I5
 50
0.000000
 41
0.880000
  0
POLYLINE
  8
WIRES
 66
1
 40
0.000000
 41
0.000000
  0
VERTEX
  8
WIRES
 10
-4.000000
 20
8.600000
  0
VERTEX
  8
WIRES
 10
-4.000000
 20
4.000000
  0
VERTEX
  8
WIRES
 10
-1.400000
 20
4.000000
  0
SEQEND
  8
WIRES
  0
POLYLINE
  8
WIRES
 66
1
 40
0.000000
 41
0.000000
  0
VERTEX
  8
WIRES
 10
-5.600000
 20
10.200000
  0
VERTEX
  8
WIRES
 10
-4.000000
 20
10.200000
  0
VERTEX
  8
WIRES
 10
-4.000000
 20
8.600000
  0
VERTEX
  8
WIRES
 10
-1.400000
 20
8.600000
  0
SEQEND
  8
WIRES
  0
POLYLINE
  8
WIRES
 66
1
 70
1
 40
0.050000
 41
0.050000
  0
VERTEX
  8
WIRES
 10
-4.020000
 20
8.600000
 42
1.000000
  0
VERTEX
  8
WIRES
 10
-3.980000
 20
8.600000
 42
1.000000
  0
SEQEND
  8
WIRES
  0
TEXT
  8
PINCON
 10
-5.600000
 20
10.300000
 40
0.127500
  1
I4
 50
0.000000
 41
0.880000
  0
POLYLINE
  8
WIRES
 66
1
 40
0.000000
 41
0.000000
  0
VERTEX
  8
WIRES
 10
-5.600000
 20
12.000000
  0
VERTEX
  8
WIRES
 10
-3.800000
 20
12.000000
  0
VERTEX
  8
WIRES
 10
-3.800000
 20
5.400000
  0
VERTEX
  8
WIRES
 10
-1.400000
 20
5.400000
  0
SEQEND
  8
WIRES
  0
TEXT
  8
PINCON
 10
-5.600000
 20
12.100000
 40
0.127500
  1
I3
 50
0.000000
 41
0.880000
  0
TEXT
  8
PINCON
 10
-5.600000
 20
13.900000
 40
0.127500
  1
I2
 50
0.000000
 41
0.880000
  0
POLYLINE
  8
WIRES
 66
1
 40
0.000000
 41
0.000000
  0
VERTEX
  8
WIRES
 10
-5.600000
 20
13.800000
  0
VERTEX
  8
WIRES
 10
-3.400000
 20
13.800000
  0
VERTEX
  8
WIRES
 10
-3.400000
 20
10.000000
  0
VERTEX
  8
WIRES
 10
-1.100000
 20
10.000000
  0
VERTEX
  8
WIRES
 10
-1.000000
 20
10.000000
  0
SEQEND
  8
WIRES
  0
POLYLINE
  8
WIRES
 66
1
 40
0.000000
 41
0.000000
  0
VERTEX
  8
WIRES
 10
3.400000
 20
11.000000
  0
VERTEX
  8
WIRES
 10
4.200000
 20
11.000000
  0
SEQEND
  8
WIRES
  0
TEXT
  8
PINCON
 10
3.700000
 20
11.100000
 40
0.127500
  1
%%oGS%%o
 50
0.000000
 41
0.880000
  0
POLYLINE
  8
WIRES
 66
1
 40
0.000000
 41
0.000000
  0
VERTEX
  8
WIRES
 10
0.000000
 20
8.600000
  0
VERTEX
  8
WIRES
 10
0.400000
 20
8.600000
  0
VERTEX
  8
WIRES
 10
0.400000
 20
8.200000
  0
VERTEX
  8
WIRES
 10
2.200000
 20
8.200000
  0
SEQEND
  8
WIRES
  0
TEXT
  8
PINCON
 10
0.200000
 20
8.700000
 40
0.127500
  1
T5
 50
0.000000
 41
0.880000
  0
POLYLINE
  8
WIRES
 66
1
 40
0.000000
 41
0.000000
  0
VERTEX
  8
WIRES
 10
0.000000
 20
7.400000
  0
VERTEX
  8
WIRES
 10
0.000000
 20
8.000000
  0
VERTEX
  8
WIRES
 10
2.200000
 20
8.000000
  0
SEQEND
  8
WIRES
  0
TEXT
  8
PINCON
 10
0.000000
 20
8.100000
 40
0.127500
  1
T6
 50
0.000000
 41
0.880000
  0
POLYLINE
  8
WIRES
 66
1
 40
0.000000
 41
0.000000
  0
VERTEX
  8
WIRES
 10
0.000000
 20
5.400000
  0
VERTEX
  8
WIRES
 10
1.400000
 20
5.400000
  0
VERTEX
  8
WIRES
 10
1.400000
 20
4.000000
  0
VERTEX
  8
WIRES
 10
2.200000
 20
4.000000
  0
SEQEND
  8
WIRES
  0
TEXT
  8
PINCON
 10
-0.100000
 20
5.500000
 40
0.127500
  1
T7
 50
0.000000
 41
0.880000
  0
POLYLINE
  8
WIRES
 66
1
 40
0.000000
 41
0.000000
  0
VERTEX
  8
WIRES
 10
0.000000
 20
4.200000
  0
VERTEX
  8
WIRES
 10
1.200000
 20
4.200000
  0
VERTEX
  8
WIRES
 10
1.200000
 20
3.800000
  0
VERTEX
  8
WIRES
 10
2.200000
 20
3.800000
  0
SEQEND
  8
WIRES
  0
TEXT
  8
PINCON
 10
-0.100000
 20
4.300000
 40
0.127500
  1
T8
 50
0.000000
 41
0.880000
  0
POLYLINE
  8
WIRES
 66
1
 40
0.000000
 41
0.000000
  0
VERTEX
  8
WIRES
 10
0.000000
 20
0.400000
  0
VERTEX
  8
WIRES
 10
2.200000
 20
0.400000
  0
SEQEND
  8
WIRES
  0
TEXT
  8
PINCON
 10
0.000000
 20
0.500000
 40
0.127500
  1
T10
 50
0.000000
 41
0.880000
  0
POLYLINE
  8
WIRES
 66
1
 40
0.000000
 41
0.000000
  0
VERTEX
  8
WIRES
 10
0.300000
 20
10.000000
  0
VERTEX
  8
WIRES
 10
1.600000
 20
10.000000
  0
VERTEX
  8
WIRES
 10
1.600000
 20
8.400000
  0
VERTEX
  8
WIRES
 10
2.200000
 20
8.400000
  0
SEQEND
  8
WIRES
  0
TEXT
  8
PINCON
 10
0.300000
 20
10.100000
 40
0.127500
  1
T4
 50
0.000000
 41
0.880000
  0
POLYLINE
  8
WIRES
 66
1
 40
0.000000
 41
0.000000
  0
VERTEX
  8
WIRES
 10
3.600000
 20
8.400000
  0
VERTEX
  8
WIRES
 10
4.200000
 20
8.400000
  0
SEQEND
  8
WIRES
  0
TEXT
  8
PINCON
 10
3.800000
 20
8.500000
 40
0.127500
  1
%%oA0%%o
 50
0.000000
 41
0.880000
  0
POLYLINE
  8
WIRES
 66
1
 40
0.000000
 41
0.000000
  0
VERTEX
  8
WIRES
 10
3.600000
 20
4.000000
  0
VERTEX
  8
WIRES
 10
4.200000
 20
4.000000
  0
SEQEND
  8
WIRES
  0
TEXT
  8
PINCON
 10
3.800000
 20
4.100000
 40
0.127500
  1
%%oA1%%o
 50
0.000000
 41
0.880000
  0
POLYLINE
  8
WIRES
 66
1
 40
0.000000
 41
0.000000
  0
VERTEX
  8
WIRES
 10
3.600000
 20
0.600000
  0
VERTEX
  8
WIRES
 10
4.200000
 20
0.600000
  0
SEQEND
  8
WIRES
  0
TEXT
  8
PINCON
 10
3.700000
 20
0.700000
 40
0.127500
  1
%%oA2%%o
 50
0.000000
 41
0.880000
  0
POLYLINE
  8
WIRES
 66
1
 40
0.000000
 41
0.000000
  0
VERTEX
  8
WIRES
 10
3.200000
 20
14.000000
  0
VERTEX
  8
WIRES
 10
4.200000
 20
14.000000
  0
SEQEND
  8
WIRES
  0
TEXT
  8
PINCON
 10
3.900000
 20
14.100000
 40
0.127500
  1
%%oEO%%o
 50
0.000000
 41
0.880000
  0
POLYLINE
  8
WIRES
 66
1
 40
0.000000
 41
0.000000
  0
VERTEX
  8
WIRES
 10
0.000000
 20
1.200000
  0
VERTEX
  8
WIRES
 10
2.000000
 20
1.200000
  0
VERTEX
  8
WIRES
 10
2.000000
 20
0.600000
  0
VERTEX
  8
WIRES
 10
2.200000
 20
0.600000
  0
SEQEND
  8
WIRES
  0
TEXT
  8
PINCON
 10
0.000000
 20
1.300000
 40
0.127500
  1
T9
 50
0.000000
 41
0.880000
  0
POLYLINE
  8
WIRES
 66
1
 40
0.000000
 41
0.000000
  0
VERTEX
  8
WIRES
 10
1.400000
 20
0.200000
  0
VERTEX
  8
WIRES
 10
1.400000
 20
3.600000
  0
VERTEX
  8
WIRES
 10
2.200000
 20
3.600000
  0
SEQEND
  8
WIRES
  0
POLYLINE
  8
WIRES
 66
1
 40
0.000000
 41
0.000000
  0
VERTEX
  8
WIRES
 10
0.000000
 20
-0.400000
  0
VERTEX
  8
WIRES
 10
1.400000
 20
-0.400000
  0
VERTEX
  8
WIRES
 10
1.400000
 20
0.200000
  0
VERTEX
  8
WIRES
 10
2.200000
 20
0.200000
  0
SEQEND
  8
WIRES
  0
POLYLINE
  8
WIRES
 66
1
 70
1
 40
0.050000
 41
0.050000
  0
VERTEX
  8
WIRES
 10
1.380000
 20
0.200000
 42
1.000000
  0
VERTEX
  8
WIRES
 10
1.420000
 20
0.200000
 42
1.000000
  0
SEQEND
  8
WIRES
  0
TEXT
  8
PINCON
 10
0.000000
 20
-0.300000
 40
0.127500
  1
T11
 50
0.000000
 41
0.880000
  0
POLYLINE
  8
WIRES
 66
1
 70
1
 40
0.050000
 41
0.050000
  0
VERTEX
  8
WIRES
 10
1.580000
 20
3.400000
 42
1.000000
  0
VERTEX
  8
WIRES
 10
1.620000
 20
3.400000
 42
1.000000
  0
SEQEND
  8
WIRES
  0
POLYLINE
  8
WIRES
 66
1
 70
1
 40
0.050000
 41
0.050000
  0
VERTEX
  8
WIRES
 10
1.580000
 20
0.000000
 42
1.000000
  0
VERTEX
  8
WIRES
 10
1.620000
 20
0.000000
 42
1.000000
  0
SEQEND
  8
WIRES
  0
POLYLINE
  8
WIRES
 66
1
 40
0.000000
 41
0.000000
  0
VERTEX
  8
WIRES
 10
1.600000
 20
3.400000
  0
VERTEX
  8
WIRES
 10
1.600000
 20
7.800000
  0
VERTEX
  8
WIRES
 10
2.200000
 20
7.800000
  0
SEQEND
  8
WIRES
  0
POLYLINE
  8
WIRES
 66
1
 40
0.000000
 41
0.000000
  0
VERTEX
  8
WIRES
 10
1.600000
 20
0.000000
  0
VERTEX
  8
WIRES
 10
1.600000
 20
3.400000
  0
VERTEX
  8
WIRES
 10
2.200000
 20
3.400000
  0
SEQEND
  8
WIRES
  0
POLYLINE
  8
WIRES
 66
1
 40
0.000000
 41
0.000000
  0
VERTEX
  8
WIRES
 10
0.000000
 20
-1.200000
  0
VERTEX
  8
WIRES
 10
1.600000
 20
-1.200000
  0
VERTEX
  8
WIRES
 10
1.600000
 20
0.000000
  0
VERTEX
  8
WIRES
 10
2.200000
 20
0.000000
  0
SEQEND
  8
WIRES
  0
TEXT
  8
PINCON
 10
0.000000
 20
-1.100000
 40
0.127500
  1
T12
 50
0.000000
 41
0.880000
  0
ENDSEC
  0
EOF
